<svg width="78" height="78" viewBox="0 0 64 64" fill="none" xmlns="http://www.w3.org/2000/svg" role="img" aria-label="Artec">
  <rect width="64" height="64" rx="18" fill="#173b5d" opacity="0.12"/>
  <path d="M18 43.4c0-1.55 1.25-2.8 2.8-2.8h22.4a2.8 2.8 0 0 1 0 5.6H20.8a2.8 2.8 0 0 1-2.8-2.8Z" fill="#173b5d"/>
  <path d="M18 32c0-1.55 1.25-2.8 2.8-2.8h14.4a2.8 2.8 0 0 1 0 5.6H20.8A2.8 2.8 0 0 1 18 32Z" fill="#2d7fd3"/>
  <path d="M18 20.6c0-1.55 1.25-2.8 2.8-2.8h22.4a2.8 2.8 0 0 1 0 5.6H20.8a2.8 2.8 0 0 1-2.8-2.8Z" fill="#2d7fd3"/>
  <path d="M40.4 32a5.6 5.6 0 1 1 11.2 0 5.6 5.6 0 0 1-11.2 0Z" fill="#173b5d"/>
</svg>
