<?xml version="1.0" encoding="UTF-8"?>
<svg xmlns="http://www.w3.org/2000/svg" width="512" height="512" viewBox="0 0 64 64" fill="none">
  <rect width="64" height="64" rx="18" fill="url(#bg)"/>
  <path d="M18 43.4c0-1.55 1.25-2.8 2.8-2.8h22.4a2.8 2.8 0 0 1 0 5.6H20.8a2.8 2.8 0 0 1-2.8-2.8Z" fill="#FFFFFF"/>
  <path d="M18 32c0-1.55 1.25-2.8 2.8-2.8h14.4a2.8 2.8 0 0 1 0 5.6H20.8A2.8 2.8 0 0 1 18 32Z" fill="#BFD9FF"/>
  <path d="M18 20.6c0-1.55 1.25-2.8 2.8-2.8h22.4a2.8 2.8 0 0 1 0 5.6H20.8a2.8 2.8 0 0 1-2.8-2.8Z" fill="#BFD9FF"/>
  <path d="M40.4 32a5.6 5.6 0 1 1 11.2 0 5.6 5.6 0 0 1-11.2 0Z" fill="#FFFFFF"/>
  <defs>
    <linearGradient id="bg" x1="7" y1="5" x2="58" y2="60" gradientUnits="userSpaceOnUse">
      <stop stop-color="#061326"/>
      <stop offset=".52" stop-color="#082242"/>
      <stop offset="1" stop-color="#2563EB"/>
    </linearGradient>
  </defs>
</svg>
